<svg version="1.1" xmlns="http://www.w3.org/2000/svg" xmlns:xlink="http://www.w3.org/1999/xlink" preserveAspectRatio="xMidYMid meet" viewBox="657 553 68 68">
<g data-item-type="image" data-item="Image" data-logo-item="" id="logo__item--logo_0" class="logo__item">
    <g class="logo__item__inner" transform="translate(654.8941049991041 551.5) scale(0.47598715658522955 0.47598715658522955) rotate(0 0 0)">
        <g>
	       <path fill-rule="evenodd" clip-rule="evenodd" fill="#80CED7" d="M116.1,78.4c-7.5,1.1-40.6,20.3-44.5,13.7   c-3.5-6,10.3-16.3,9.7-22.3C79.5,52.6,38.1,87.3,33,80.8c-2.2-2.8,1.4-7.5,4.1-11.6c5.7-8.6-1.3-8.4-7.9-6.8   c-5.8,1.4-11.3,4.9-16.9,6.2c-0.4,0.9-0.7,1.7-1,2.6c-1.5,8.1,0,16.3,6.1,22.4c1,1,24.9,34.1,26,35.6c5.1,6.6,12.2,12.2,20.9,11.7   c5.6-0.5,10.2-3.1,14.3-6.6c10.2-11.1,21-21.9,31.9-32.7C118.3,93,128.7,76.6,116.1,78.4z" data-part-id="logo__item--logo_0__0"></path>
	       <path fill-rule="evenodd" clip-rule="evenodd" fill="#263D42" d="M132,45.7c0,0-1.4-1.2-3.8-3.1c-14-11.3-28.2-22-43.5-31.2   c-6.1-2-12.2-1.5-18.3,0.5C50.7,22.1,38,36.3,24.7,49.6c-3.7,4.2-7.5,8.6-9.8,13.8c6-1.4,12.3-6,18.3-8.2c8.7-3.3,15.3-3.8,8.8,7.6   c-1.7,3-3.1,6.1-1.3,8.1c5.4,6.2,47.7-31.1,50.3-13.9c0.9,5.9-10.6,20.5-7.9,23.1c5.5,5.3,29.4-18.8,44.7-18.5   c12.3,0.3,6.3,12.9-4.9,25.6c0.1-0.1,0.2-0.2,0.3-0.3c-2.4,3.9-5.3,7.6-7.6,10.1c9.3-7.5,16.5-15.9,20.4-22.9   C142.6,65.4,140.5,52.4,132,45.7z" data-part-id="logo__item--logo_0__1"></path>
        </g>
    </g>
</g>
</svg>
